# xmcd
#
# Track frame offsets:
#	182
#	10885
#	23802
#	39162
#	53422
#	66712
#	78255
#	91742
#	105585
#	118227
#	131100
#	146082
#	159515
#	172035
#
# Disc length: 2491 seconds
#
# Revision: 2
# Processed by: cddbd v1.5.2PL0 Copyright (c) Steve Scherf et al.
# Submitted via: audiograbber 1.83.01
#
DISCID=b609b90e
DTITLE=Altemar Dutra - Acervo Especial
DYEAR=1993
DGENRE=
TTITLE0=Sentimental Demais
TTITLE1=O Trovador
TTITLE2=Balada Triste
TTITLE3=Brigas
TTITLE4=Um Jeito Estúpido de Te Amar
TTITLE5=Negue
TTITLE6=Nossos Momentos
TTITLE7=Somos Iguais
TTITLE8=Meu Velho (Mi Viejo)
TTITLE9=A Pretendida
TTITLE10=Gente Humilde
TTITLE11=Tudo de Mim
TTITLE12=Laura
TTITLE13=Eu Nunca Mais Vou Te Esquecer
EXTD=Dados Por - Dayvison de Azevedo - Recife - PE\nWPP - 81 9-8690-4073\nFB - 
EXTD=https://www.facebook.com/profile.php?id=100006142608616
EXTT0=
EXTT1=
EXTT2=
EXTT3=
EXTT4=
EXTT5=
EXTT6=
EXTT7=
EXTT8=
EXTT9=
EXTT10=
EXTT11=
EXTT12=
EXTT13=
PLAYORDER=
